<svg width="50" height="40" viewBox="0 0 50 40" fill="none" xmlns="http://www.w3.org/2000/svg">
<path d="M0 6.25C0 4.17969 2.39955 2.5 5.35714 2.5H16.0714C19.029 2.5 21.4286 4.17969 21.4286 6.25V13.75C21.4286 15.8203 19.029 17.5 16.0714 17.5H5.35714C2.39955 17.5 0 15.8203 0 13.75V6.25ZM7.14286 7.5V12.5H14.2857V7.5H7.14286ZM0 26.25C0 24.1797 2.39955 22.5 5.35714 22.5H16.0714C19.029 22.5 21.4286 24.1797 21.4286 26.25V33.75C21.4286 35.8203 19.029 37.5 16.0714 37.5H5.35714C2.39955 37.5 0 35.8203 0 33.75V26.25ZM7.14286 27.5V32.5H14.2857V27.5H7.14286ZM33.9286 2.5H44.6429C47.6004 2.5 50 4.17969 50 6.25V13.75C50 15.8203 47.6004 17.5 44.6429 17.5H33.9286C30.971 17.5 28.5714 15.8203 28.5714 13.75V6.25C28.5714 4.17969 30.971 2.5 33.9286 2.5ZM42.8571 7.5H35.7143V12.5H42.8571V7.5ZM28.5714 23.75C28.5714 23.0625 29.375 22.5 30.3571 22.5H37.5C38.4821 22.5 39.2857 23.0625 39.2857 23.75C39.2857 24.4375 40.0893 25 41.0714 25H44.6429C45.625 25 46.4286 24.4375 46.4286 23.75C46.4286 23.0625 47.2321 22.5 48.2143 22.5C49.1964 22.5 50 23.0625 50 23.75V31.25C50 31.9375 49.1964 32.5 48.2143 32.5H41.0714C40.0893 32.5 39.2857 31.9375 39.2857 31.25C39.2857 30.5625 38.4821 30 37.5 30C36.5179 30 35.7143 30.5625 35.7143 31.25V36.25C35.7143 36.9375 34.9107 37.5 33.9286 37.5H30.3571C29.375 37.5 28.5714 36.9375 28.5714 36.25V23.75ZM41.0714 37.5C40.5978 37.5 40.1436 37.3683 39.8087 37.1339C39.4738 36.8995 39.2857 36.5815 39.2857 36.25C39.2857 35.9185 39.4738 35.6005 39.8087 35.3661C40.1436 35.1317 40.5978 35 41.0714 35C41.545 35 41.9992 35.1317 42.3341 35.3661C42.669 35.6005 42.8571 35.9185 42.8571 36.25C42.8571 36.5815 42.669 36.8995 42.3341 37.1339C41.9992 37.3683 41.545 37.5 41.0714 37.5ZM48.2143 37.5C47.7407 37.5 47.2865 37.3683 46.9516 37.1339C46.6167 36.8995 46.4286 36.5815 46.4286 36.25C46.4286 35.9185 46.6167 35.6005 46.9516 35.3661C47.2865 35.1317 47.7407 35 48.2143 35C48.6879 35 49.1421 35.1317 49.477 35.3661C49.8119 35.6005 50 35.9185 50 36.25C50 36.5815 49.8119 36.8995 49.477 37.1339C49.1421 37.3683 48.6879 37.5 48.2143 37.5Z" fill="black"/>
</svg>
